# xmcd
#
# Track frame offsets:
#	150
#	17100
#	33975
#	52200
#	67500
#	86400
#	108150
#	122925
#	142425
#	162975
#	179925
#	196800
#	215025
#	230325
#	249225
#	270975
#	285750
#	305250
#
# Disc length: 4346 seconds
#
# Revision: 3
# Processed by: cddbd v1.5.2PL0 Copyright (c) Steve Scherf et al.
# Submitted via: audiograbber 1.83.01
#
DISCID=fd10f812
DTITLE=Various Artist - THM9612
DYEAR=1996
DGENRE=Karaoke
TTITLE0=Seal - Fly Like An Eagle
TTITLE1=Streisand, Barbra and Bryan Adams - I Finally Found Someone
TTITLE2=Stewart, Rod - If We Fall In Love Tonight
TTITLE3=Cardigans, The - Lovefool
TTITLE4=R.E.M - Bittersweet Me
TTITLE5=Cranberries, The - When You're Gone
TTITLE6=Counting Crows - Angels Of The Silences
TTITLE7=Bush - Swallowed
TTITLE8=Dion, Celine - Send Me A Lover
TTITLE9=VOCAL - Fly Like An Eagle
TTITLE10=VOCAL - I Finally Found Someone
TTITLE11=VOCAL - If We Fall In Love Tonight
TTITLE12=VOCAL - Lovefool
TTITLE13=VOCAL - Bittersweet Me
TTITLE14=VOCAL - When You're Gone
TTITLE15=VOCAL - Angels Of The Silences
TTITLE16=VOCAL - Swallowed
TTITLE17=VOCAL - Send Me A Lover
EXTD=
EXTT0=
EXTT1=
EXTT2=
EXTT3=
EXTT4=
EXTT5=
EXTT6=
EXTT7=
EXTT8=
EXTT9=
EXTT10=
EXTT11=
EXTT12=
EXTT13=
EXTT14=
EXTT15=
EXTT16=
EXTT17=
PLAYORDER=
